<svg width="1500" height="1500" viewBox="0 0 1500 1500" xmlns="http://www.w3.org/2000/svg">
  <path fill="#311dee" d="M0 0h1500v1500H0z"/>
  <path fill="#fff" fill-rule="evenodd" d="M399.746 349.751 300 449.505V750H199.999v100.001H300v400.496l100.001-99.998 99.998-99.998V450h200.505l99.998-100.001 99.994-99.998h-401zm697.755 2.231L996.499 452.977l-30.863 49.759L917.4 580.5l-17.37 28.001-.015 141.428L900 891.357l10.309 16.571c5.666 9.116 27.701 44.471 48.964 78.574l38.663 61.999 101.032 100.999L1200 1250.497v-201.795l-9.128-17.1A38160 38160 0 0 0 1167.011 987a30435 30435 0 0 1-72.746-136.5l-34.17-64.661c-8.91-16.86-16.699-31.984-17.31-33.6-1.223-3.232-3.754 2.111 26.16-55.163 6.154-11.786 24.709-46.661 41.231-77.501 46.538-86.858 67.627-126.311 79.192-148.129l10.631-20.055-.142-45.446c-.075-24.994-.412-70.084-.75-100.2l-.607-54.757zm-697.5 448.016V850H300V750h100.001z"/>
  <path fill="#fff" fill-rule="evenodd" d="M603 750c55.2-8 88.1-39.7 97-97 8.9 57.3 41.8 89 97 97-55.2 8-88.1 39.7-97 97-8.9-57.3-41.8-89-97-97"/>
</svg>
